<svg height="64" viewBox="0 0 64 64" width="64" xmlns="http://www.w3.org/2000/svg" xmlns:xlink="http://www.w3.org/1999/xlink"><title/><desc/><g fill="none" fill-rule="evenodd" id="Menu" stroke="none" stroke-width="1"><g fill="#000" id="Group" transform="translate(13.000000, 19.000000)"><path d="M2.5.0h32C35.8807119.0 37 1.11928813 37 2.5 37 3.88071187 35.8807119 5 34.5 5H2.5C1.11928813 5 0 3.88071187.0 2.5.0 1.11928813 1.11928813.0 2.5.0z" id="Rectangle"/><path d="M2.5 10h32C35.8807119 10 37 11.1192881 37 12.5 37 13.8807119 35.8807119 15 34.5 15H2.5C1.11928813 15 0 13.8807119.0 12.5.0 11.1192881 1.11928813 10 2.5 10z" id="Rectangle"/><path d="M2.5 20h32C35.8807119 20 37 21.1192881 37 22.5 37 23.8807119 35.8807119 25 34.5 25H2.5C1.11928813 25 0 23.8807119.0 22.5.0 21.1192881 1.11928813 20 2.5 20z" id="Rectangle"/></g></g></svg>